# xmcd
#
# Track frame offsets:
#	150
#	13973
#	30414
#	48167
#	63748
#	80380
#	96318
#	116067
#	136120
#	148799
#	162622
#	179063
#	196816
#	212397
#	229029
#	244967
#	264716
#	284769
#
# Disc length: 3965 seconds
#
# Revision: 2
# Processed by: cddbd v1.5.2PL0 Copyright (c) Steve Scherf et al.
# Submitted via: audiograbber 1.83.01
#
DISCID=110f7b12
DTITLE=Various Artist - PHC701
DYEAR=2007
DGENRE=Karaoke
TTITLE0=George Strait - It Just Comes Natural
TTITLE1=Gary Allan - A Feelin' Like That
TTITLE2=John Rich - Gretchen Wilson - Come To Bed
TTITLE3=Clay Walker - 'Fore She Was Mama
TTITLE4=Josh Gracin - I Keep Coming Back
TTITLE5=Billy Currington - Good Directions
TTITLE6=Faith Hill - Stealing Kisses
TTITLE7=Darryl Worley - I Just Came Back From A War
TTITLE8=Vince Gill - The Reason Why
TTITLE9=George Strait (vocal) - It Just Comes Natural
TTITLE10=Gary Allan (vocal) - A Feelin' Like That
TTITLE11=John Rich - Gretchen Wilson (vocal) - Come To Bed
TTITLE12=Clay Walker (vocal) - 'Fore She Was Mama
TTITLE13=Josh Gracin (vocal) - I Keep Coming Back
TTITLE14=Billy Currington (vocal) - Good Directions
TTITLE15=Faith Hill (vocal) - Stealing kisses
TTITLE16=Darryl Worley (vocal) - I Just Came Back From a War
TTITLE17=Vince Gill (vocal) - The Reason Why
EXTD=accurate info category needs changed
EXTT0=
EXTT1=
EXTT2=
EXTT3=
EXTT4=
EXTT5=
EXTT6=
EXTT7=
EXTT8=
EXTT9=
EXTT10=
EXTT11=
EXTT12=
EXTT13=
EXTT14=
EXTT15=
EXTT16=
EXTT17=
PLAYORDER=
